<svg width="28" height="32" viewBox="0 0 28 32" fill="none" xmlns="http://www.w3.org/2000/svg">
<path d="M12.1625 21.68L22.05 12.64L19.5562 10.36L12.1625 17.12L8.4875 13.76L5.99375 16.04L12.1625 21.68ZM14 32C9.94583 31.0667 6.59925 28.9397 3.96025 25.6192C1.32125 22.2987 0.00116667 18.6123 0 14.56V4.8L14 0L28 4.8V14.56C28 18.6133 26.6799 22.3003 24.0397 25.6208C21.3996 28.9413 18.053 31.0677 14 32ZM14 28.64C17.0333 27.76 19.5417 26 21.525 23.36C23.5083 20.72 24.5 17.7867 24.5 14.56V7L14 3.4L3.5 7V14.56C3.5 17.7867 4.49167 20.72 6.475 23.36C8.45833 26 10.9667 27.76 14 28.64Z" fill="#16A235"/>
</svg>
