<svg width="63" height="63" viewBox="0 0 63 63" fill="none" xmlns="http://www.w3.org/2000/svg">
<circle cx="31.5" cy="31.5" r="31.5" fill="#16A235"/>
<path d="M37 40.8321V19.8225C36.9993 19.6098 36.9389 19.4013 36.8252 19.2194C36.7116 19.0376 36.549 18.8893 36.355 18.7905C36.161 18.6917 35.9429 18.6461 35.7242 18.6587C35.5055 18.6713 35.2945 18.7415 35.1138 18.8619L19.486 29.3667C18.838 29.8021 18.838 30.8502 19.486 31.2868L35.1138 41.7916C35.2941 41.9132 35.5052 41.9845 35.7243 41.9977C35.9433 42.011 36.162 41.9657 36.3564 41.8668C36.5508 41.7679 36.7136 41.6192 36.8271 41.4368C36.9405 41.2544 37.0003 41.0452 37 40.8321Z" fill="white"/>
</svg>
