<svg width="63" height="63" viewBox="0 0 63 63" fill="none" xmlns="http://www.w3.org/2000/svg">
<circle cx="31.5" cy="31.5" r="30.5" fill="white" stroke="#16A235" stroke-width="2"/>
<path d="M25 20.1679L25 41.1775C25.0007 41.3902 25.0611 41.5987 25.1748 41.7806C25.2884 41.9624 25.451 42.1107 25.645 42.2095C25.839 42.3083 26.0571 42.3539 26.2758 42.3413C26.4945 42.3287 26.7055 42.2585 26.8862 42.1381L42.514 31.6333C43.162 31.1979 43.162 30.1498 42.514 29.7132L26.8862 19.2084C26.7059 19.0868 26.4948 19.0155 26.2757 19.0023C26.0567 18.989 25.838 19.0343 25.6436 19.1332C25.4492 19.2321 25.2864 19.3808 25.1729 19.5632C25.0595 19.7456 24.9997 19.9548 25 20.1679Z" fill="#16A235"/>
</svg>
