<svg width="157" height="48" viewBox="0 0 157 48" fill="none" xmlns="http://www.w3.org/2000/svg">
<rect width="157" height="48" fill="#B9B9B9"/>
<g id="Sign Up">
<rect width="1728" height="1117" transform="translate(-60 -50)" fill="#E8DFCC"/>
<g id="Logo: White">
<g id="Group">
<g id="SvgjsG2191">
<path id="Vector" d="M22.7887 23.7964C24.5637 13.0022 32.6195 8.45373 37.4667 6.68865C38.0811 6.48498 38.0811 5.67033 37.5349 5.39878C30.708 2.07227 20.4675 4.78779 12.6165 12.527C4.42415 20.6735 1.76164 31.6714 6.06263 38.3923C6.60878 39.2069 7.56456 39.6143 8.52033 39.3427C12.2069 38.2565 21.0137 34.6584 22.7887 23.7964Z" fill="#16A235"/>
<path id="Vector_2" d="M25.5193 24.2038C24.7 29.4312 22.3789 33.165 19.6481 35.8126C16.7125 38.7318 13.3673 40.3611 10.8413 41.3116C10.2269 41.5152 10.2269 42.3299 10.773 42.6014C17.6 45.9279 27.8405 43.2124 35.6915 35.4732C43.8838 27.3267 46.5463 16.3288 42.2453 9.60794C41.6992 8.79329 40.7434 8.38596 39.7876 8.65751C36.1011 9.74372 27.2943 13.3418 25.5193 24.2038Z" fill="#16A235"/>
</g>
<g id="SvgjsG2192">
<path id="Vector_3" d="M56.3222 18.056L52.3335 18.0561L54.9662 13.1771H61.2687L61.7873 15.4777C62.3989 14.7637 63.1502 14.1754 64.0411 13.7126C64.932 13.2498 65.9757 13.0184 67.1724 13.0184C68.3425 13.0184 69.4327 13.2234 70.4433 13.6333C71.4539 14.0431 72.3314 14.6712 73.076 15.5174C73.8207 16.3636 74.4057 17.4279 74.8312 18.7105C75.2567 19.9931 75.4694 21.5203 75.4694 23.292C75.4694 26.7297 74.4988 29.3939 72.5575 31.2848C70.6162 33.1757 67.8773 34.1209 64.3403 34.1209C63.6754 34.1209 63.0106 34.0813 62.3458 34.0019V43.1649H56.3225L56.3222 18.056ZM62.3456 28.7263C63.0104 28.8585 63.6885 28.9247 64.3799 28.9247C65.8691 28.9247 67.0525 28.4883 67.9301 27.6157C68.8077 26.743 69.2464 25.3547 69.2464 23.4507C69.2464 21.9962 68.9406 20.793 68.329 19.8411C67.7174 18.8891 66.7866 18.4131 65.5367 18.4131C64.3932 18.4131 63.5755 18.8164 63.0835 19.6229C62.5916 20.4294 62.3456 21.4145 62.3456 22.578V28.7263ZM87.6355 12.9391C89.0184 12.9391 90.3081 13.1308 91.5048 13.5143C92.7015 13.8977 93.732 14.5125 94.5962 15.3587C95.4604 16.205 96.1386 17.3024 96.6306 18.6511C97.1226 19.9997 97.3685 21.626 97.3685 23.53C97.3685 25.434 97.1226 27.0603 96.6306 28.409C96.1386 29.7577 95.4605 30.855 94.5962 31.7013C93.7319 32.5476 92.7015 33.1623 91.5048 33.5458C90.3081 33.9293 89.0183 34.121 87.6355 34.121C86.2261 34.121 84.9296 33.9293 83.7463 33.5458C82.563 33.1623 81.539 32.5475 80.6748 31.7013C79.8106 30.8551 79.1324 29.7577 78.6404 28.409C78.1485 27.0603 77.9025 25.434 77.9025 23.53C77.9025 21.6525 78.1485 20.0459 78.6404 18.7106C79.1324 17.3752 79.8105 16.2776 80.6748 15.4182C81.5391 14.5589 82.5629 13.9308 83.7463 13.5341C84.9296 13.1374 86.226 12.9391 87.6355 12.9391ZM87.6355 28.9246C88.8322 28.9246 89.7696 28.528 90.4477 27.7346C91.1258 26.9413 91.4649 25.5397 91.4649 23.53C91.4649 21.5203 91.1258 20.1121 90.4477 19.3055C89.7696 18.4989 88.8322 18.0957 87.6355 18.0957C86.4654 18.0957 85.5279 18.5122 84.8233 19.3452C84.1187 20.1782 83.7662 21.573 83.7662 23.53C83.7662 25.5397 84.1119 26.9413 84.8034 27.7346C85.4948 28.528 86.4388 28.9246 87.6355 28.9246ZM117.952 6.07676L117.952 33.3276C116.994 33.5391 116.063 33.6978 115.159 33.8036C114.255 33.9094 113.431 33.9887 112.686 34.0416C111.942 34.0945 111.303 34.1209 110.771 34.1209H109.694C107.886 34.1209 106.364 33.8433 105.127 33.2879C103.891 32.7326 102.893 31.9789 102.135 31.0269C101.377 30.0749 100.826 28.9708 100.48 27.7148C100.134 26.4588 99.9614 25.1166 99.9614 23.6887C99.9614 21.864 100.194 20.2972 100.659 18.9882C101.125 17.6792 101.776 16.6017 102.614 15.7554C103.452 14.9091 104.449 14.2811 105.606 13.8713C106.763 13.4614 108.046 13.2564 109.455 13.2564C109.694 13.2564 109.967 13.2763 110.273 13.3159C110.579 13.3556 110.871 13.4019 111.15 13.4548C111.43 13.5076 111.689 13.5671 111.928 13.6333C112.168 13.6994 112.354 13.7721 112.487 13.8514V11.5111L112.606 10.9954H109.016L111.689 6.0768L117.952 6.07676ZM110.333 28.8056C110.732 28.8056 111.117 28.7924 111.489 28.766C111.862 28.7395 112.194 28.6998 112.487 28.647V18.4924C112.3 18.4659 112.088 18.4262 111.848 18.3734C111.636 18.3205 111.39 18.2808 111.11 18.2544C110.831 18.2279 110.519 18.2147 110.173 18.2147C108.923 18.2147 107.873 18.6378 107.022 19.484C106.171 20.3302 105.745 21.7317 105.745 23.6887C105.745 24.6671 105.865 25.4869 106.104 26.148C106.344 26.8091 106.669 27.338 107.082 27.7346C107.494 28.1313 107.979 28.409 108.538 28.5676C109.096 28.7263 109.694 28.8056 110.333 28.8056ZM122.778 5.2041L128.801 5.20414V25.6323C128.801 26.3199 128.841 26.8752 128.921 27.2983C129.001 27.7215 129.127 28.052 129.3 28.29C129.473 28.528 129.692 28.6867 129.958 28.766C130.224 28.8453 130.543 28.885 130.916 28.885C131.102 28.885 131.315 28.8784 131.554 28.8652C131.793 28.852 132.192 28.7925 132.751 28.6867L133.11 33.645C132.418 33.8565 131.773 33.9887 131.175 34.0416C130.577 34.0945 130.038 34.1209 129.559 34.1209C127.432 34.1209 125.77 33.5458 124.573 32.3954C123.377 31.2451 122.778 29.3742 122.778 26.7826V5.2041ZM144.159 12.9391C145.542 12.9391 146.785 13.1307 147.889 13.5141C148.992 13.8976 149.916 14.519 150.661 15.3785C151.405 16.238 151.977 17.342 152.376 18.6906C152.775 20.0393 152.975 21.6656 152.975 23.5696V24.1844L152.895 25.4339H141.726L140.888 25.3149C140.915 26.0818 141.001 26.6966 141.147 27.1594C141.294 27.6222 141.506 27.9858 141.786 28.2503C142.065 28.5148 142.404 28.6999 142.803 28.8057C143.202 28.9115 143.654 28.9776 144.159 29.004C144.983 29.0569 145.695 28.9379 146.293 28.647C146.891 28.3562 147.457 27.7612 147.988 26.862C148.813 27.1265 149.571 27.3777 150.262 27.6157C150.847 27.8273 151.379 28.0124 151.858 28.171C152.336 28.3297 152.576 28.3958 152.576 28.3694C151.618 30.3527 150.455 31.8005 149.085 32.7128C147.716 33.6252 146.074 34.0813 144.159 34.0813C142.75 34.0813 141.473 33.8962 140.33 33.526C139.186 33.1558 138.215 32.5542 137.418 31.7212C136.62 30.8882 136.002 29.804 135.563 28.4685C135.124 27.1331 134.905 25.5001 134.905 23.5697C134.905 21.6922 135.124 20.0856 135.563 18.7503C136.002 17.4149 136.62 16.3173 137.418 15.458C138.215 14.5986 139.186 13.9638 140.33 13.554C141.473 13.1441 142.749 12.9391 144.159 12.9391ZM146.353 20.8723L146.951 20.9517C146.898 20.0261 146.652 19.3055 146.213 18.7899C145.775 18.2742 145.09 18.0164 144.159 18.0164C143.095 18.0164 142.331 18.2742 141.865 18.7899C141.4 19.3055 141.114 20.0261 141.008 20.9517C141.141 20.9252 141.26 20.9054 141.367 20.8922C141.473 20.879 141.593 20.8723 141.726 20.8723H146.353Z" fill="#16A235"/>
</g>
</g>
</g>
</g>
</svg>
